HIERARCHY
ROOT ROOT
{
	OFFSET 0.000000 56.020000 -5.659234
	CHANNELS 6 Xposition Yposition Zposition Xrotation Yrotation Zrotation 
	JOINT C_spine0001_bind_JNT
	{
		OFFSET 0.000000 1.618999 0.000000
		CHANNELS 3 Xrotation Yrotation Zrotation
		JOINT C_spine0002_bind_JNT
		{
			OFFSET 0.000000 4.942001 0.000001
			CHANNELS 3 Xrotation Yrotation Zrotation
			JOINT C_spine0003_bind_JNT
			{
				OFFSET 0.000000 4.942001 -0.000000
				CHANNELS 3 Xrotation Yrotation Zrotation
				JOINT C_neck0001_bind_JNT
				{
					OFFSET 0.000000 17.026009 -0.000000
					CHANNELS 3 Xrotation Yrotation Zrotation
					JOINT C_neck0002_bind_JNT
					{
						OFFSET 0.000000 3.249985 0.000000
						CHANNELS 3 Xrotation Yrotation Zrotation
						JOINT C_head_bind_JNT
						{
							OFFSET 0.000000 5.278008 0.000000
							CHANNELS 3 Xrotation Yrotation Zrotation
							End Site
							{
								OFFSET 0.000000 0.000000 0.000000
							}
						}
					}
				}
				JOINT L_clavicle_bind_JNT
				{
					OFFSET 4.590000 12.067001 0.834000
					CHANNELS 3 Xrotation Yrotation Zrotation
					JOINT L_armUpper0001_bind_JNT
					{
						OFFSET 7.812635 0.512001 -3.452945
						CHANNELS 3 Xrotation Yrotation Zrotation
						JOINT L_armLower0001_bind_JNT
						{
							OFFSET 15.265892 -6.552116 -0.058157
							CHANNELS 3 Xrotation Yrotation Zrotation
							JOINT L_hand0001_bind_JNT
							{
								OFFSET 14.747667 -6.369995 5.049225
								CHANNELS 3 Xrotation Yrotation Zrotation
								End Site
								{
									OFFSET 0.000000 0.000000 0.000000
								}
							}
						}
					}
				}
				JOINT R_clavicle_bind_JNT
				{
					OFFSET -4.590000 12.067001 0.834000
					CHANNELS 3 Xrotation Yrotation Zrotation
					JOINT R_armUpper0001_bind_JNT
					{
						OFFSET -7.812635 0.512001 -3.452945
						CHANNELS 3 Xrotation Yrotation Zrotation
						JOINT R_armLower0001_bind_JNT
						{
							OFFSET -15.265890 -6.552124 -0.058160
							CHANNELS 3 Xrotation Yrotation Zrotation
							JOINT R_hand0001_bind_JNT
							{
								OFFSET -14.746784 -6.369629 5.048937
								CHANNELS 3 Xrotation Yrotation Zrotation
								End Site
								{
									OFFSET 0.000000 0.000000 0.000000
								}
							}
						}
					}
				}
			}
		}
	}
	JOINT C_pelvis0001_bind_JNT
	{
		OFFSET -0.000000 0.000000 0.000000
		CHANNELS 3 Xrotation Yrotation Zrotation
		JOINT L_legUpper0001_bind_JNT
		{
			OFFSET 6.599999 -6.027000 0.539000
			CHANNELS 3 Xrotation Yrotation Zrotation
			JOINT L_legLower0001_bind_JNT
			{
				OFFSET -0.140713 -19.187443 0.040261
				CHANNELS 3 Xrotation Yrotation Zrotation
				JOINT L_foot0001_bind_JNT
				{
					OFFSET -0.132215 -18.028637 -1.138370
					CHANNELS 3 Xrotation Yrotation Zrotation
					JOINT L_foot0002_bind_JNT
					{
						OFFSET 0.007014 -4.693133 9.886524
						CHANNELS 3 Xrotation Yrotation Zrotation
						End Site
						{
							OFFSET 0.000000 0.000000 0.000000
						}
					}
				}
			}
		}
		JOINT R_legUpper0001_bind_JNT
		{
			OFFSET -6.599999 -6.027000 0.539000
			CHANNELS 3 Xrotation Yrotation Zrotation
			JOINT R_legLower0001_bind_JNT
			{
				OFFSET 0.140710 -19.187164 0.040550
				CHANNELS 3 Xrotation Yrotation Zrotation
				JOINT R_foot0001_bind_JNT
				{
					OFFSET 0.132215 -18.028633 -1.138362
					CHANNELS 3 Xrotation Yrotation Zrotation
					JOINT R_foot0002_bind_JNT
					{
						OFFSET -0.007014 -4.693128 9.886505
						CHANNELS 3 Xrotation Yrotation Zrotation
						End Site
						{
							OFFSET 0.000000 0.000000 0.000000
						}
					}
				}
			}
		}
	}
}
MOTION
Frames: 5
Frame Time: 0.033333
-1.463767 48.675190 40.596973 0.007285 -2.733149 -0.016308 2.369178 -7.018215 2.771402 2.019225 3.263393 -1.118145 1.168506 3.436913 -0.345736 3.307955 -0.107703 0.094789 -1.979879 -1.105874 -0.183681 -12.763102 -0.481023 2.102680 -1.762658 14.042818 -3.945905 1.503663 11.877335 -62.220055 5.506306 9.999002 1.635895 -29.166538 -34.589375 -53.559006 -1.101478 -13.060800 4.619306 -3.440482 -0.286925 60.470627 11.286584 -8.971951 0.760173 -6.873879 27.187605 36.272182 3.392228 -7.464666 2.737705 -1.161075 -0.647482 -11.048421 2.526286 -7.177909 1.732834 -2.066284 7.892303 8.278532 -2.266151 0.127756 -0.081314 1.856501 0.379856 3.147507 19.838394 1.838320 -0.119244 -5.785386 -0.652835 -0.265687 -17.693087 0.126999 -0.975544 
-1.287924 48.664330 41.057507 0.003828 -2.783409 -0.013515 2.430663 -7.263763 2.809373 1.915502 3.277180 -1.261368 1.182520 3.512884 -0.347363 3.346685 -0.100855 0.143052 -2.043115 -1.211185 -0.238640 -13.200904 -0.427630 2.097800 -1.782153 14.180028 -3.905620 1.819077 11.986950 -62.377567 5.418246 10.233759 2.032126 -28.962879 -34.320110 -53.494499 -1.251494 -12.920882 4.585985 -3.141617 -0.466616 60.341774 11.483127 -9.129316 0.654422 -6.890346 27.141542 36.300507 3.435145 -7.583852 2.608273 -0.695622 -0.936157 -11.409991 2.473610 -7.141366 1.784905 -2.403153 8.145698 8.729266 -2.354007 0.120941 -0.040330 1.745963 0.339328 3.065232 21.158854 1.960611 -0.109829 -5.200894 -0.261488 0.279540 -19.152735 0.417661 -1.734616 
-1.099452 48.646824 41.545494 0.006723 -2.905964 -0.017334 2.394409 -7.350118 2.823761 1.895960 3.274201 -1.361735 1.206050 3.455292 -0.446738 3.357387 -0.062147 0.206598 -2.012743 -1.202601 -0.231309 -13.424882 -0.416390 2.091307 -1.812597 14.216543 -3.844867 2.047059 12.279096 -62.405746 5.426743 10.350889 2.319336 -28.649408 -34.138771 -53.479630 -1.130437 -12.704814 4.615910 -3.107199 -0.603194 60.265011 11.565714 -9.222851 0.767843 -6.869384 27.202162 36.306313 3.419543 -7.684073 2.646386 -0.228733 -1.036414 -11.841377 2.462457 -7.219701 1.657524 -2.663393 8.299752 9.215359 -2.425187 0.117828 0.029933 1.613575 0.372741 2.778767 22.581940 2.004260 -0.076407 -4.571197 -0.274472 0.714121 -20.727720 0.697194 -2.393754 
-0.904659 48.587639 42.045334 0.002737 -2.873733 -0.013706 2.437538 -7.538571 2.848610 1.908935 3.228664 -1.534109 1.154753 3.469354 -0.429562 3.490791 -0.084017 0.187051 -2.077873 -1.117771 -0.210572 -13.765113 -0.387366 2.039960 -1.789938 14.174721 -3.815304 2.306041 12.418055 -62.474857 5.296677 10.361012 2.511387 -28.320517 -33.884838 -53.218334 -1.222914 -12.583936 4.552935 -3.028624 -0.728867 60.152462 11.652528 -9.282728 0.863181 -7.041286 27.022825 36.320629 3.470113 -7.785010 2.563246 0.304545 -1.358498 -12.156885 2.385032 -7.206919 1.593256 -3.002928 8.575049 9.736721 -2.636070 0.067511 -0.014052 0.949656 0.288502 2.590923 24.818655 1.975816 -0.092995 -3.816590 -0.445145 1.023946 -22.708624 0.938344 -2.897288 
-0.715360 48.565754 42.494259 0.001936 -3.025861 -0.017434 2.452184 -7.561874 2.854216 1.849946 3.202162 -1.662447 1.179578 3.397239 -0.457655 3.528745 -0.070679 0.233172 -2.061145 -0.957108 -0.242931 -14.098961 -0.520176 2.059136 -1.856556 14.168896 -3.796912 2.512042 12.648187 -62.397209 5.362230 10.364567 2.671903 -28.172855 -33.915131 -53.245705 -1.168059 -12.503715 4.622630 -2.961315 -0.874686 60.046196 11.512959 -9.164945 0.874127 -7.042136 26.946203 36.483257 3.456779 -7.789153 2.610358 0.701366 -1.449775 -12.635890 2.411248 -7.210691 1.599573 -3.221451 8.677087 10.090954 -2.803763 0.038607 0.053239 0.313815 0.284386 2.411511 27.044380 1.760328 -0.119285 -3.010411 -0.543351 0.983846 -24.507639 0.834931 -2.963662 
